<?xml version="1.0" standalone="no"?>
<!DOCTYPE svg PUBLIC "-//W3C//DTD SVG 20010904//EN"
 "http://www.w3.org/TR/2001/REC-SVG-20010904/DTD/svg10.dtd">
<svg version="1.0" xmlns="http://www.w3.org/2000/svg"
 width="500.000000pt" height="500.000000pt" viewBox="0 0 500.000000 500.000000"
 preserveAspectRatio="xMidYMid meet">

<g transform="translate(0.000000,500.000000) scale(0.100000,-0.100000)"
fill="#000000" stroke="none">
<path d="M2635 4904 c-146 -15 -324 -63 -430 -116 -150 -76 -284 -194 -392
-346 l-59 -83 -144 -3 c-122 -3 -159 -8 -233 -30 -105 -31 -157 -56 -215 -103
-49 -40 -98 -119 -107 -174 -23 -137 122 -261 368 -312 l108 -23 -19 -24 c-10
-14 -43 -63 -71 -110 -29 -46 -70 -105 -92 -131 -57 -68 -107 -155 -129 -224
-23 -76 -56 -149 -72 -163 -9 -7 -13 -39 -13 -99 1 -92 13 -132 58 -180 30
-34 37 -28 16 15 -19 39 -24 81 -21 170 l2 52 44 0 c24 0 62 7 86 15 l42 15
-7 -48 c-3 -26 -1 -78 5 -116 10 -63 9 -75 -12 -135 -18 -51 -36 -79 -79 -123
-31 -31 -68 -60 -83 -64 -48 -12 -27 -24 42 -24 75 0 139 24 184 67 15 15 29
25 31 22 2 -2 15 -35 30 -74 23 -62 25 -75 16 -113 -11 -39 -42 -76 -95 -109
-16 -10 -13 -12 27 -12 51 -1 105 14 131 36 23 21 38 8 38 -32 0 -41 -46 -99
-88 -110 -25 -7 -25 -8 -7 -15 34 -14 78 -10 122 10 l43 19 5 -25 c3 -13 7
-35 10 -49 3 -13 14 -29 24 -35 16 -8 18 -7 14 10 -3 11 -2 28 2 37 7 16 9 15
15 -7 5 -14 8 -42 9 -64 1 -32 -5 -44 -35 -73 l-36 -34 28 7 c16 4 37 11 47
16 37 19 86 -58 67 -107 -5 -14 -6 -25 -1 -25 14 0 71 69 71 86 0 12 5 14 18
8 55 -24 184 -64 225 -70 26 -4 50 -11 53 -16 3 -5 -6 -29 -21 -54 -18 -31
-25 -55 -22 -72 4 -18 -2 -35 -19 -55 -13 -16 -24 -34 -24 -41 0 -7 -30 -34
-67 -62 -87 -63 -183 -156 -183 -177 0 -11 -27 -29 -76 -53 -42 -19 -77 -34
-78 -32 -2 1 -35 127 -75 278 -40 151 -79 281 -86 288 -12 14 -111 35 -690
147 -496 96 -778 146 -804 143 -25 -3 -26 -5 -29 -87 l-3 -85 172 -509 c94
-279 169 -510 167 -512 -1 -1 -77 -24 -167 -49 -91 -26 -167 -48 -169 -51 -2
-2 -2 -8 -1 -13 2 -5 80 13 174 39 93 26 172 46 174 43 8 -8 32 -78 33 -94 0
-45 20 -80 51 -89 18 -5 127 -36 242 -69 249 -72 1043 -294 1134 -317 69 -18
84 -16 203 22 75 23 79 23 125 7 36 -12 67 -14 124 -10 75 6 75 6 97 -24 39
-53 197 -82 300 -56 79 21 89 21 69 -2 -24 -26 -21 -59 6 -76 24 -16 534 -177
622 -197 30 -7 55 -15 55 -19 0 -3 -17 -15 -37 -26 l-38 -19 140 -3 139 -3
171 77 c93 43 221 101 284 131 62 29 114 53 116 53 2 0 36 15 77 34 164 77
343 156 352 156 5 0 39 -31 75 -68 147 -152 252 -178 295 -72 12 31 16 76 16
200 0 245 -28 343 -138 487 -132 174 -291 290 -471 347 -83 26 -298 66 -357
66 -17 0 -55 14 -85 30 -30 17 -109 58 -176 92 -68 35 -123 65 -123 69 0 3 11
11 24 17 38 17 93 69 106 102 19 45 5 76 -50 116 l-50 36 0 74 c0 84 -15 124
-54 142 -31 14 -32 23 -8 46 18 15 20 15 38 -5 22 -25 74 -49 106 -49 20 0 19
3 -12 21 -59 36 -75 75 -47 112 11 16 16 15 61 -8 40 -20 64 -25 125 -25 l76
1 -37 20 c-44 23 -68 63 -68 114 0 34 23 95 36 95 18 0 68 -47 79 -74 l13 -31
7 28 c7 24 -3 85 -21 131 -5 12 7 9 49 -13 30 -16 77 -32 105 -36 49 -6 132 8
132 24 0 4 -15 15 -34 24 -42 20 -82 70 -107 137 -14 38 -19 76 -19 157 l0
106 68 -9 c114 -14 184 -10 222 11 48 29 50 45 3 45 -49 0 -130 46 -167 95
l-29 37 17 57 c73 253 110 546 87 695 -20 139 -117 297 -302 494 -175 186
-331 301 -552 407 -75 37 -137 72 -137 80 0 20 -63 71 -105 85 -21 7 -64 10
-99 7 -40 -3 -86 2 -134 14 -71 18 -259 31 -337 23z m353 -53 c46 -13 81 -25
79 -27 -1 -2 -45 6 -97 16 -66 14 -136 20 -228 20 -379 0 -686 -161 -889 -466
-34 -51 -63 -70 -63 -40 0 28 86 143 164 221 152 151 313 235 531 279 121 23
130 24 280 22 112 -1 157 -7 223 -25z m-43 -35 c17 -12 14 -16 -41 -53 -68
-47 -183 -163 -208 -210 -22 -43 -56 -46 -56 -5 0 44 67 128 179 226 65 57 93
67 126 42z m-315 -40 c0 -7 -27 -32 -61 -57 -52 -37 -58 -45 -44 -54 52 -31
95 -67 95 -80 0 -30 -30 -26 -92 10 -35 20 -70 41 -78 45 -34 17 -15 48 64
109 64 49 82 58 97 50 11 -5 19 -16 19 -23z m464 -135 c15 -24 56 -185 49
-191 -4 -4 -56 -10 -115 -13 -102 -6 -108 -5 -108 13 0 28 30 40 99 40 38 0
61 4 61 11 0 6 -7 35 -16 65 -12 43 -13 58 -4 69 14 17 26 19 34 6z m-854
-146 l-34 -35 29 -30 c33 -35 26 -54 -8 -22 -32 30 -44 28 -58 -13 -7 -19 -17
-35 -21 -35 -12 0 -10 12 12 52 16 30 17 37 5 42 -24 9 -17 27 8 21 16 -4 30
2 52 25 16 16 33 30 39 30 5 0 -5 -16 -24 -35z m113 -26 c-8 -8 -6 -20 8 -45
10 -19 18 -34 16 -35 -55 -15 -93 5 -67 36 7 8 9 15 5 15 -5 0 0 9 10 20 10
11 23 20 29 20 6 0 6 -4 -1 -11z m105 -42 c2 -21 -1 -37 -7 -37 -6 0 -11 11
-11 25 0 28 -12 32 -30 10 -17 -21 -30 -19 -30 5 0 12 10 25 23 30 38 16 52 8
55 -33z m-168 -7 c0 -16 -4 -30 -10 -30 -11 0 -14 43 -3 53 11 12 13 8 13 -23z
m207 15 c-9 -23 10 -27 44 -10 17 9 33 14 36 11 3 -3 -8 -27 -25 -53 -16 -26
-39 -66 -49 -87 -12 -23 -23 -34 -27 -28 -4 6 5 34 19 62 20 39 22 50 11 50
-9 0 -20 9 -26 21 -13 23 -7 49 11 49 6 0 9 -7 6 -15z m150 1 c-11 -9 -14 -17
-8 -21 6 -3 10 -16 9 -28 0 -12 3 -30 7 -41 7 -17 6 -17 -16 -5 -13 7 -29 12
-35 11 -17 -3 -35 23 -28 42 3 9 10 16 15 16 5 0 9 6 9 14 0 14 18 23 50 25
12 0 11 -3 -3 -13z m127 -42 c35 -35 7 -84 -48 -84 -39 0 -56 15 -56 52 0 20
7 31 23 38 34 14 64 12 81 -6z m184 -46 l-3 -33 65 0 c86 -1 87 -21 4 -49 -33
-12 -73 -29 -87 -38 -15 -10 -31 -18 -37 -18 -22 0 -8 22 26 42 32 19 34 23
20 33 -16 12 -21 50 -10 79 11 28 25 17 22 -16z m-1440 -23 c-3 -3 -47 -17
-98 -31 -111 -29 -187 -68 -260 -132 -46 -40 -51 -42 -32 -16 56 80 161 141
287 168 75 15 112 19 103 11z m2212 -41 c0 -8 -4 -12 -10 -9 -5 3 -10 13 -10
21 0 8 5 12 10 9 6 -3 10 -13 10 -21z m-1425 -19 c50 -8 130 -26 178 -39 93
-26 281 -95 275 -102 -3 -2 -67 18 -144 45 -147 52 -288 86 -414 100 -58 7
-65 9 -30 10 25 0 86 -6 135 -14z m1432 -37 c-3 -8 -6 -5 -6 6 -1 11 2 17 5
13 3 -3 4 -12 1 -19z m-697 -13 c0 -3 -6 -14 -12 -25 -20 -32 1 -55 48 -54 22
0 47 4 57 8 10 5 17 4 17 -2 0 -19 -30 -41 -66 -48 -65 -12 -114 50 -84 106 9
17 40 29 40 15z m90 -5 c8 -5 12 -12 8 -15 -9 -9 -78 5 -78 16 0 12 51 11 70
-1z m620 -41 c0 -11 -4 -17 -10 -14 -5 3 -10 13 -10 21 0 8 5 14 10 14 6 0 10
-9 10 -21z m3 -59 c3 -11 1 -20 -4 -20 -5 0 -9 9 -9 20 0 11 2 20 4 20 2 0 6
-9 9 -20z m7 -66 c0 -8 -4 -14 -10 -14 -5 0 -10 9 -10 21 0 11 5 17 10 14 6
-3 10 -13 10 -21z m0 -64 c0 -11 -4 -20 -10 -20 -5 0 -10 9 -10 20 0 11 5 20
10 20 6 0 10 -9 10 -20z m-10 -65 c0 -8 -4 -15 -10 -15 -5 0 -10 7 -10 15 0 8
5 15 10 15 6 0 10 -7 10 -15z m-7 -60 c-3 -8 -9 -15 -14 -15 -10 0 -12 24 -3
33 11 11 24 -3 17 -18z m-12 -58 c-13 -13 -26 -3 -16 12 3 6 11 8 17 5 6 -4 6
-10 -1 -17z m-7 -52 c-4 -8 -10 -15 -15 -15 -5 0 -9 7 -9 15 0 8 7 15 15 15 9
0 12 -6 9 -15z m-14 -45 c0 -5 -5 -10 -11 -10 -5 0 -7 5 -4 10 3 6 8 10 11 10
2 0 4 -4 4 -10z m-2088 -14 c24 -18 26 -98 4 -164 -16 -49 -36 -62 -36 -24 0
23 -18 3 -41 -45 -17 -35 -18 -30 -3 30 5 21 4 21 -19 -5 -14 -15 -42 -70 -62
-122 -41 -106 -92 -186 -145 -225 l-35 -26 33 38 c42 49 80 126 131 266 43
117 76 187 117 253 27 42 31 44 56 24z m2106 -32 c12 -8 27 -25 33 -37 11 -21
11 -21 -14 2 -26 23 -42 24 -92 6 -15 -5 -14 -1 8 19 33 30 36 31 65 10z
m-108 -53 c0 -11 -99 -75 -106 -68 -6 6 84 77 97 77 5 0 9 -4 9 -9z m135 -61
c24 -38 58 -94 75 -124 30 -53 31 -55 12 -65 -17 -9 -19 -8 -16 7 5 18 -84
157 -101 157 -6 0 -11 -12 -13 -26 -3 -25 -5 -26 -48 -21 -39 4 -46 2 -51 -16
-2 -11 -18 -26 -34 -32 -36 -15 -36 -23 2 -83 25 -40 33 -46 45 -37 19 17 18
27 -6 52 -11 12 -20 25 -20 30 0 4 9 8 20 8 13 0 20 7 20 19 0 26 10 31 38 20
16 -6 22 -16 22 -39 0 -27 3 -30 20 -25 31 10 24 -13 -10 -30 -17 -9 -30 -23
-30 -35 0 -22 -16 -35 -25 -20 -3 5 -10 10 -16 10 -12 0 -12 -37 1 -45 16 -10
130 74 130 96 0 10 -5 19 -11 19 -6 0 -8 9 -4 20 3 11 2 20 -3 20 -13 0 -33
48 -23 55 8 4 86 -114 79 -120 -2 -2 -39 -30 -83 -63 -62 -48 -83 -58 -92 -49
-23 22 -121 182 -116 189 2 4 35 26 73 49 69 40 79 52 61 64 -13 8 -181 -97
-181 -113 0 -7 31 -65 70 -128 38 -63 65 -112 60 -109 -17 10 -107 149 -124
190 -31 73 -28 78 107 165 67 44 123 80 125 80 1 0 22 -31 47 -70z m-2015 -17
c24 -21 25 -35 5 -72 -17 -33 -45 -47 -57 -29 -13 21 -9 72 8 96 18 26 19 26
44 5z m-297 -26 c-63 -81 -162 -216 -172 -235 -7 -13 -15 -21 -18 -19 -16 17
105 198 167 251 39 32 47 33 23 3z m587 -153 c0 -136 -3 -175 -12 -171 -22 7
-14 347 7 347 3 0 5 -79 5 -176z m53 -19 c6 -173 5 -179 -11 -145 -24 52 -23
357 2 329 2 -2 6 -85 9 -184z m-203 142 c0 -8 -7 -14 -15 -14 -8 0 -15 6 -15
14 0 7 7 13 15 13 8 0 15 -6 15 -13z m448 -26 c3 -27 0 -32 -15 -29 -19 3 -28
30 -19 54 10 26 31 10 34 -25z m-63 -1 c0 -13 -6 -25 -12 -27 -9 -3 -13 6 -13
27 0 21 4 30 13 28 6 -3 12 -15 12 -28z m-855 -70 c-35 -105 -86 -195 -131
-234 -64 -54 -74 -46 -39 31 28 64 178 279 187 270 2 -3 -5 -33 -17 -67z
m1530 41 c10 -19 4 -51 -9 -51 -15 0 -31 25 -31 47 0 28 25 31 40 4z m215 -11
c12 -19 -5 -31 -27 -19 -17 9 -18 13 -7 20 18 11 26 11 34 -1z m-328 -120 c34
-90 39 -80 -46 -94 -31 -6 -33 -4 -27 17 3 12 12 52 18 90 7 37 15 67 18 67 4
0 20 -36 37 -80z m623 40 c0 -11 -7 -20 -15 -20 -15 0 -21 21 -8 33 12 13 23
7 23 -13z m-1473 -176 c-1 -2 -19 2 -40 8 -40 12 -40 12 12 94 l26 41 3 -70
c2 -38 1 -71 -1 -73z m1465 94 c-15 -15 -26 -4 -18 18 5 13 9 15 18 6 9 -9 9
-15 0 -24z m13 -57 c0 -18 -7 -26 -27 -32 -30 -8 -38 -3 -38 21 0 23 21 41 45
38 14 -2 20 -11 20 -27z m-551 -55 c14 -24 46 -69 71 -100 l46 -56 -59 0
c-119 0 -240 -54 -301 -134 -40 -53 -64 -105 -41 -91 9 6 10 -3 5 -34 -9 -53
4 -52 33 3 25 46 58 81 106 112 l30 19 -30 -50 c-27 -46 -29 -57 -29 -150 1
-89 4 -106 27 -151 25 -47 78 -104 98 -104 4 0 0 16 -10 36 -15 28 -16 41 -8
65 14 41 31 45 67 18 l30 -22 47 28 47 28 19 -23 c24 -30 23 -47 -9 -89 l-26
-36 36 34 c55 52 80 120 80 216 1 94 -21 145 -80 194 -43 36 -38 39 16 11 88
-45 121 -87 141 -182 26 -126 -49 -297 -144 -331 l-29 -10 28 -15 c17 -9 43
-12 66 -9 l39 5 -19 -25 c-38 -47 -112 -93 -151 -93 -34 0 -18 -23 26 -38 29
-11 55 -12 104 -4 36 5 66 8 68 7 2 -2 -23 -19 -55 -39 -62 -38 -55 -45 23
-21 69 21 81 20 59 -5 -65 -72 -364 -157 -633 -181 -230 -20 -513 14 -653 79
-149 69 -206 150 -179 253 11 40 12 41 46 34 20 -3 43 -9 52 -11 10 -3 5 5
-10 18 -16 13 -28 26 -28 28 0 3 36 4 80 2 52 -2 80 0 80 7 0 6 -6 11 -14 11
-28 0 -133 108 -154 158 -26 61 -40 138 -24 128 9 -5 12 8 12 43 0 41 4 51 20
56 10 3 33 24 51 46 32 41 75 69 105 69 16 0 15 -2 -3 -22 -30 -33 -40 -57
-48 -109 -14 -92 33 -230 95 -283 37 -30 59 -35 30 -6 -24 24 -26 67 -5 98 15
21 17 21 41 5 21 -13 30 -14 45 -5 28 18 37 15 53 -15 15 -28 15 -27 16 31 l0
58 56 -52 c31 -28 79 -62 106 -76 48 -24 153 -48 168 -39 5 3 -7 20 -24 37
-18 18 -43 59 -55 92 -24 65 -28 54 46 142 74 88 159 240 199 352 21 59 39
109 40 111 6 7 69 19 106 20 33 1 39 -3 62 -43z m-941 -1 c20 -4 27 -18 49
-97 14 -51 28 -100 32 -108 6 -14 -3 -15 -58 -12 -78 5 -130 -19 -178 -83 -16
-22 -27 -31 -24 -20 3 11 10 43 16 70 13 59 46 163 71 223 16 37 22 42 44 37
14 -3 35 -7 48 -10z m1482 -5 c18 -8 17 -9 -7 -9 -15 -1 -30 4 -33 9 -7 12 12
12 40 0z m-2034 -187 c-13 -189 -28 -235 -99 -310 -20 -22 -28 -28 -16 -14 75
93 94 159 87 307 -5 97 -2 126 11 158 9 22 19 37 22 33 3 -3 1 -81 -5 -174z
m2027 96 c3 -54 2 -57 -23 -61 -23 -5 -25 -2 -25 27 0 59 11 96 29 93 12 -2
17 -17 19 -59z m402 41 c-19 -13 -30 -13 -30 0 0 6 10 10 23 10 18 0 19 -2 7
-10z m15 -51 c3 -10 8 -29 11 -40 5 -19 3 -21 -15 -16 -16 4 -21 1 -21 -14 0
-10 -4 -19 -10 -19 -11 0 -14 102 -4 113 10 10 33 -4 39 -24z m-2688 -46 c-3
-10 -5 -4 -5 12 0 17 2 24 5 18 2 -7 2 -21 0 -30z m1931 -226 c2 -19 -1 -27
-12 -27 -18 0 -35 29 -29 48 9 23 38 8 41 -21z m-256 -1 c28 -21 12 -53 -28
-58 -39 -5 -54 6 -54 38 0 17 7 24 28 27 15 2 29 5 32 5 3 1 13 -4 22 -12z
m-823 -30 c9 -11 9 -20 2 -34 -8 -16 -17 -18 -43 -13 -26 5 -34 12 -36 34 -3
25 0 27 31 27 19 0 40 -6 46 -14z m-462 -212 c36 -52 37 -57 17 -46 -39 21
-81 89 -103 166 -19 69 0 60 33 -17 18 -41 42 -87 53 -103z m2143 154 c62 -32
90 -83 90 -167 0 -79 -25 -136 -84 -192 -57 -55 -111 -79 -179 -79 -41 0 -71
-7 -111 -27 -31 -15 -58 -25 -61 -22 -2 3 17 28 44 57 26 28 59 76 72 106 27
62 39 70 39 26 0 -16 4 -30 8 -30 14 0 51 119 64 207 l12 85 31 -6 c16 -3 41
-8 54 -12 15 -5 22 -3 18 3 -4 6 -27 16 -52 23 -43 12 -59 33 -32 43 24 10 43
7 87 -15z m-890 -69 c0 -35 -19 -48 -37 -24 -14 20 -18 67 -6 78 12 13 43 -26
43 -54z m-800 -17 c0 -19 -18 -23 -34 -6 -9 8 -16 26 -16 39 l0 24 25 -23 c14
-13 25 -28 25 -34z m-394 -301 c-9 -16 -21 -33 -27 -36 -6 -4 -4 7 5 23 9 17
16 42 16 55 0 33 14 44 18 14 2 -14 -4 -39 -12 -56z m-1301 -146 c576 -110
1158 -225 1163 -230 2 -2 -7 -7 -22 -11 -16 -4 -231 34 -573 100 -792 155
-857 168 -867 174 -13 7 25 21 44 17 8 -2 123 -25 255 -50z m2551 -228 c-16
-12 -58 -45 -94 -74 -67 -53 -82 -57 -82 -23 0 11 -9 28 -20 38 -21 19 -20 19
22 35 51 19 155 45 183 46 17 0 16 -3 -9 -22z m-286 -37 c0 -6 -7 -27 -15 -47
-8 -19 -15 -44 -15 -54 0 -11 -4 -19 -10 -19 -5 0 -10 11 -10 24 0 37 -18 76
-34 76 -9 0 -18 -14 -22 -36 -7 -37 -7 -37 -20 -13 -7 13 -13 36 -14 52 0 27
0 27 70 27 41 0 70 -4 70 -10z m42 -69 c-3 -39 -9 -53 -28 -66 -23 -15 -24
-14 -24 5 0 25 42 110 54 110 0 0 -1 -22 -2 -49z m-414 -20 c3 -36 0 -42 -14
-39 -9 1 -23 12 -30 23 -12 18 -11 24 2 43 23 33 39 22 42 -27z m460 16 c2
-19 -1 -27 -12 -27 -11 0 -16 10 -16 31 0 38 24 35 28 -4z m-158 -16 c0 -6 -4
-13 -10 -16 -5 -3 -10 1 -10 9 0 9 5 16 10 16 6 0 10 -4 10 -9z m-335 -61 c3
-5 -9 -17 -27 -26 l-33 -17 24 27 c28 29 28 29 36 16z m-135 -137 c-42 -36
-101 -73 -80 -50 23 24 104 85 109 81 2 -2 -11 -16 -29 -31z m365 -3 c15 -16
38 -94 36 -125 -2 -78 -23 -351 -27 -354 -2 -2 -25 0 -52 5 l-47 9 -7 182 c-4
101 -12 191 -18 202 -5 11 -10 31 -10 45 0 20 8 27 43 39 56 20 61 20 82 -3z
m360 -36 c60 -20 111 -38 113 -39 1 -1 0 -10 -4 -19 -4 -10 -18 -16 -38 -17
-23 0 -26 -2 -13 -8 17 -6 17 -8 -4 -35 l-23 -29 -8 23 c-7 18 -11 20 -23 10
-8 -6 -19 -9 -25 -5 -5 3 -10 -1 -10 -10 0 -12 6 -15 20 -10 11 4 20 2 20 -4
0 -6 -11 -11 -25 -11 -24 0 -32 -10 -18 -23 3 -4 12 -2 20 4 10 9 9 5 -2 -17
-8 -16 -15 -36 -15 -45 0 -9 -3 -19 -7 -23 -5 -4 -9 -12 -9 -17 -1 -5 -2 -13
-3 -18 0 -5 -17 -21 -37 -36 -30 -23 -38 -25 -46 -14 -8 12 -9 11 -5 -1 2 -8
0 -24 -6 -35 -10 -19 -10 -18 -19 4 -4 13 -13 78 -19 145 -8 92 -7 132 2 166
18 66 37 100 57 100 9 0 66 -16 127 -36z m-500 -39 c9 -39 23 -209 18 -221
-12 -33 -73 -20 -73 16 0 10 -4 22 -10 25 -6 4 -8 -10 -4 -37 9 -69 -6 -94
-69 -112 -30 -9 -59 -16 -65 -16 -5 0 -12 20 -14 44 -7 57 -72 197 -108 231
-24 23 -31 25 -51 15 -22 -10 -22 -9 3 14 15 13 53 32 84 41 48 14 62 15 83 4
44 -22 46 -23 33 -6 -14 17 -14 17 103 45 43 10 61 -1 70 -43z m-1380 -45 c51
-25 115 -77 115 -95 0 -8 -15 -18 -32 -23 -27 -7 -38 -5 -65 15 -17 13 -47 27
-66 30 -29 4 -37 2 -47 -16 -16 -32 16 -90 66 -118 46 -27 67 -28 88 -7 20 19
21 34 2 34 -8 0 -16 7 -20 15 -3 9 0 15 8 15 8 0 16 5 18 12 3 7 15 3 36 -12
25 -19 34 -21 46 -11 12 10 21 8 45 -10 17 -13 31 -28 31 -35 0 -21 -40 -27
-59 -10 -10 9 -25 16 -34 16 -19 0 -35 -22 -19 -28 6 -2 22 -12 34 -22 l23
-19 -22 -22 c-51 -52 -179 -16 -269 76 -86 89 -104 187 -40 226 37 23 97 19
161 -11z m2167 -27 c90 -49 146 -107 164 -171 24 -81 13 -115 -56 -170 l-54
-45 -11 49 c-16 70 -37 105 -95 157 -57 51 -140 87 -202 87 l-41 0 24 26 c13
15 46 45 74 66 46 38 53 40 98 35 26 -4 71 -19 99 -34z m-1079 -83 c21 -41 40
-91 43 -111 l6 -35 -73 -21 c-76 -22 -199 -47 -204 -41 -2 2 -15 41 -29 87
-22 70 -25 87 -14 98 18 17 210 104 223 100 6 -1 27 -36 48 -77z m1317 -15
l49 -25 -42 -39 c-23 -22 -45 -37 -49 -35 -3 2 -9 18 -13 34 -4 17 -29 55 -57
85 l-50 55 57 -25 c31 -14 78 -36 105 -50z m-510 -20 c-7 -8 -17 -15 -22 -15
-6 0 -5 7 2 15 7 8 17 15 22 15 6 0 5 -7 -2 -15z m133 -27 c68 -34 147 -118
147 -157 0 -13 -250 -171 -351 -221 -43 -22 -111 -47 -149 -55 -39 -8 -93 -26
-121 -41 -67 -33 -94 -25 -54 16 35 37 17 39 -33 5 -34 -23 -72 -33 -72 -19 0
3 12 21 26 40 31 40 24 44 -18 9 -60 -51 -77 -23 -26 40 l33 40 -35 -29 c-35
-29 -50 -23 -31 13 6 11 32 37 57 58 45 36 50 38 130 40 l84 2 126 118 c69 65
144 130 166 146 44 29 54 29 121 -5z m505 -16 c12 -12 30 -77 55 -196 21 -99
36 -181 34 -182 -10 -11 -570 86 -585 101 -2 2 13 15 34 29 l37 25 40 -21 41
-20 43 21 c58 28 133 98 133 125 0 11 24 47 52 79 55 61 84 71 116 39z m-908
-6 c0 -3 -4 -8 -10 -11 -5 -3 -10 -1 -10 4 0 6 5 11 10 11 6 0 10 -2 10 -4z
m0 -41 c0 -8 -4 -15 -10 -15 -5 0 -10 7 -10 15 0 8 5 15 10 15 6 0 10 -7 10
-15z m564 -151 c9 -24 7 -34 -8 -34 -22 0 -38 24 -24 38 16 16 25 15 32 -4z
m1715 -154 c11 -58 23 -137 27 -176 7 -76 -12 -241 -29 -259 -6 -7 -8 -1 -5
17 4 21 -2 35 -23 58 -16 16 -29 34 -29 40 0 18 27 10 43 -12 16 -23 16 -23
16 14 1 29 -5 41 -24 54 -14 9 -25 25 -25 35 0 25 9 24 40 -6 l25 -24 -3 40
c-3 30 -11 45 -33 61 -16 12 -29 30 -29 40 0 26 15 22 40 -9 17 -22 20 -24 16
-8 -2 11 -7 32 -10 46 -3 15 -22 38 -41 53 -19 15 -35 34 -35 42 0 20 10 18
37 -8 16 -15 23 -17 23 -7 0 33 -13 55 -41 71 -16 9 -29 24 -29 33 0 20 9 19
36 -6 l22 -20 -4 48 c-3 41 -2 44 6 18 5 -16 18 -77 29 -135z m45 2 c13 -59
28 -137 31 -173 11 -107 -23 -335 -46 -312 -5 5 -3 50 6 109 20 136 19 184
-10 330 -27 135 -30 168 -16 160 5 -4 21 -54 35 -114z m67 -89 c18 -80 21
-112 16 -206 -8 -141 -34 -266 -51 -246 -2 2 3 45 10 94 18 130 17 284 -5 394
-25 126 -1 97 30 -36z m-581 -26 c94 -99 125 -137 111 -137 -37 0 -305 64
-373 89 -46 16 -105 36 -133 43 l-50 14 94 18 c52 10 122 27 155 36 104 31
107 30 196 -63z m-779 41 c29 -14 69 -37 87 -53 30 -25 32 -29 17 -45 -10 -11
4 -7 42 12 54 28 64 30 143 25 79 -5 134 -20 287 -78 l24 -9 -28 -24 c-15 -12
-76 -56 -135 -95 -60 -40 -111 -78 -115 -83 -8 -14 -6 -13 135 79 96 62 116
71 133 62 19 -9 7 -19 -103 -83 -67 -40 -167 -100 -220 -133 -81 -50 -255
-132 -330 -157 -26 -8 -22 -26 5 -26 17 0 19 -2 8 -9 -8 -5 -22 -6 -30 -1 -9
4 -52 17 -96 29 -44 12 -111 31 -148 43 l-68 20 23 27 22 26 -23 -21 -23 -21
-56 34 c-56 33 -168 74 -201 72 -9 0 15 -9 52 -20 79 -22 132 -48 173 -82 28
-24 135 -62 244 -87 62 -14 90 -27 90 -40 0 -5 -15 -3 -32 4 -37 15 -108 29
-108 22 0 -3 31 -14 69 -26 38 -11 72 -27 75 -35 6 -17 -7 -19 -33 -5 -28 14
-102 29 -95 19 3 -5 12 -9 19 -9 17 0 97 -31 92 -36 -6 -6 -112 26 -152 46
-21 11 -46 20 -55 20 -8 -1 -1 -7 15 -15 25 -12 26 -14 5 -8 -50 12 -111 43
-117 58 -3 9 -12 14 -21 10 -8 -3 -24 3 -36 12 -16 14 -18 15 -8 2 10 -14 -19
-9 -145 23 -87 22 -160 42 -163 45 -3 3 18 2 45 -1 l50 -6 -47 15 c-49 16 -67
31 -25 22 12 -3 38 -8 57 -11 26 -4 20 0 -20 14 -33 12 -43 18 -25 16 17 -3
48 -7 70 -10 22 -3 12 2 -23 10 -80 20 -74 29 8 14 79 -14 91 -6 13 10 -32 6
-71 15 -87 19 l-29 7 58 52 c57 53 152 125 364 277 161 116 164 117 247 112
47 -2 88 -12 125 -29z m-459 -113 c1 -5 -21 -18 -48 -29 -27 -10 -65 -25 -85
-33 -32 -13 -40 -13 -65 1 -16 8 -27 16 -24 16 3 0 43 14 90 30 85 29 129 34
132 15z m1234 -75 c131 -27 152 -34 179 -60 18 -19 26 -33 20 -39 -6 -5 -75
-39 -155 -75 -129 -59 -147 -65 -171 -54 -22 10 -26 17 -23 42 1 17 3 31 4 31
1 0 3 16 5 37 3 26 0 38 -12 42 -14 6 -14 9 3 27 18 20 18 21 -1 35 -10 8 -24
14 -29 14 -8 1 21 30 29 30 1 0 69 -14 151 -30z m-1438 -16 c20 -14 31 -54 15
-54 -5 0 -33 16 -63 35 l-55 35 40 0 c22 0 51 -7 63 -16z m-251 -27 c4 -5 -63
-54 -103 -75 -19 -10 -23 -8 -27 10 -4 14 3 29 23 50 24 23 35 28 65 24 21 -3
39 -7 42 -9z m14 -45 c-11 -21 -69 -52 -96 -52 -24 0 -9 18 49 55 51 33 66 32
47 -3z m-293 -70 c-7 -17 -21 -33 -32 -36 -35 -9 -160 -6 -176 4 -12 8 -12 10
5 10 11 0 63 13 115 29 52 15 96 27 97 26 2 -1 -3 -15 -9 -33z m1542 -106 c0
-7 -92 -56 -104 -56 -6 1 14 14 44 30 61 32 60 32 60 26z m-200 -91 c0 -2 -13
-11 -30 -20 -38 -19 -40 -11 -2 9 31 17 32 18 32 11z m-203 -111 c-3 -3 -12
-4 -19 -1 -8 3 -5 6 6 6 11 1 17 -2 13 -5z"/>
<path d="M2700 4370 c-11 -7 -12 -12 -4 -20 16 -16 59 -8 59 10 0 18 -34 24
-55 10z"/>
<path d="M3680 3540 c0 -13 5 -20 13 -17 6 2 12 10 12 17 0 7 -6 15 -12 18 -8
2 -13 -5 -13 -18z"/>
<path d="M2918 2343 c12 -2 30 -2 40 0 9 3 -1 5 -23 4 -22 0 -30 -2 -17 -4z"/>
<path d="M2515 2258 c-48 -16 -78 -19 -147 -15 -50 2 -88 1 -88 -5 0 -5 11
-30 24 -56 28 -53 82 -120 71 -87 -15 43 -15 51 2 84 19 36 30 40 175 67 36 6
37 6 44 -32 4 -21 2 -56 -4 -79 -9 -36 -9 -38 4 -20 21 28 16 159 -6 162 -8 0
-42 -8 -75 -19z m-155 -45 c-1 -14 -28 -44 -32 -36 -18 33 -17 43 7 43 14 0
25 -3 25 -7z"/>
<path d="M2176 1347 c3 -10 9 -15 12 -12 3 3 0 11 -7 18 -10 9 -11 8 -5 -6z"/>
<path d="M3760 419 c-22 -18 -22 -19 -3 -10 12 6 25 16 28 21 9 15 3 12 -25
-11z"/>
<path d="M3219 383 l-24 -28 28 24 c15 14 27 26 27 28 0 8 -8 1 -31 -24z"/>
<path d="M2888 333 c7 -3 16 -2 19 1 4 3 -2 6 -13 5 -11 0 -14 -3 -6 -6z"/>
<path d="M2868 313 c6 -2 18 -2 25 0 6 3 1 5 -13 5 -14 0 -19 -2 -12 -5z"/>
<path d="M3375 264 c28 -7 57 -13 65 -13 8 0 -7 7 -35 15 -27 7 -57 13 -65 13
-8 0 8 -7 35 -15z"/>
<path d="M3158 238 c12 -6 22 -14 22 -19 0 -4 10 -5 23 -2 18 4 19 3 7 -6 -18
-13 -1 -15 19 -2 9 6 -1 13 -35 25 -54 18 -70 20 -36 4z"/>
<path d="M3278 233 c7 -3 16 -2 19 1 4 3 -2 6 -13 5 -11 0 -14 -3 -6 -6z"/>
<path d="M0 735 l0 -54 38 -10 c186 -48 687 -183 2042 -553 l415 -113 240 -2
c214 -2 236 0 200 12 -22 7 -215 59 -430 115 -515 134 -791 207 -1320 350
-580 156 -1163 310 -1175 310 -6 0 -10 -25 -10 -55z"/>
</g>
</svg>
